<svg width="24" height="24" viewBox="0 0 24 24" fill="none" xmlns="http://www.w3.org/2000/svg">
<path d="M15.7074 11.2809C15.8949 11.4684 16.0002 11.7227 16.0002 11.9879C16.0002 12.253 15.8949 12.5073 15.7074 12.6949L9.70741 18.6949C9.5188 18.877 9.2662 18.9778 9.00401 18.9755C8.74181 18.9733 8.491 18.8681 8.30559 18.6827C8.12018 18.4973 8.01501 18.2465 8.01273 17.9843C8.01045 17.7221 8.11125 17.4695 8.29341 17.2809L13.5864 11.9879L8.29341 6.69487C8.11125 6.50627 8.01045 6.25367 8.01273 5.99147C8.01501 5.72928 8.12018 5.47846 8.30559 5.29306C8.491 5.10765 8.74181 5.00248 9.00401 5.0002C9.2662 4.99792 9.51881 5.09872 9.70741 5.28087L15.7074 11.2809Z" fill="#E7E7EF"/>
</svg>
