<svg width="24" height="24" viewBox="0 0 24 24" fill="none" xmlns="http://www.w3.org/2000/svg">
<path d="M12.6947 15.6947C12.5072 15.8822 12.2529 15.9875 11.9877 15.9875C11.7225 15.9875 11.4682 15.8822 11.2807 15.6947L5.28071 9.69471C5.09855 9.50611 4.99776 9.25351 5.00004 8.99131C5.00232 8.72911 5.10749 8.4783 5.29289 8.29289C5.4783 8.10749 5.72911 8.00232 5.99131 8.00004C6.25351 7.99776 6.50611 8.09855 6.69471 8.28071L11.9877 13.5737L17.2807 8.28071C17.4693 8.09855 17.7219 7.99776 17.9841 8.00004C18.2463 8.00232 18.4971 8.10748 18.6825 8.29289C18.8679 8.4783 18.9731 8.72911 18.9754 8.99131C18.9777 9.25351 18.8769 9.50611 18.6947 9.69471L12.6947 15.6947Z" fill="#E7E7EF"/>
</svg>
