<svg width="24" height="24" viewBox="0 0 24 24" fill="none" xmlns="http://www.w3.org/2000/svg">
<path d="M0 8C0 3.58172 3.58172 0 8 0H16C20.4183 0 24 3.58172 24 8V16C24 20.4183 20.4183 24 16 24H8C3.58172 24 0 20.4183 0 16V8Z" fill="#F5F7FD"/>
<path fill-rule="evenodd" clip-rule="evenodd" d="M17.45 7.4C17.7814 7.64853 17.8485 8.11863 17.6 8.45L12.3402 15.4631C11.6729 16.3529 10.3556 16.4025 9.62319 15.5654L7.43557 13.0653C7.16281 12.7536 7.19439 12.2798 7.50612 12.007C7.81785 11.7342 8.29167 11.7658 8.56443 12.0776L10.7521 14.5777C10.8567 14.6973 11.0449 14.6902 11.1402 14.5631L16.4 7.55C16.6485 7.21863 17.1186 7.15147 17.45 7.4Z" fill="#16161C"/>
</svg>
